<?xml version="1.0" encoding="utf-8"?>
<!DOCTYPE svg PUBLIC "-//W3C//DTD SVG 1.1//EN" "http://www.w3.org/Graphics/SVG/1.1/DTD/svg11.dtd">
<svg version="1.1" id="Ebene_1" xmlns="http://www.w3.org/2000/svg" xmlns:xlink="http://www.w3.org/1999/xlink" x="0px" y="0px"
	 width="1000px" height="1000px" viewBox="0 0 1000 1000" enable-background="new 0 0 1000 1000" xml:space="preserve">
<polygon fill="#3FA9F5" points="1000,1000 1000,792.8932188134524 792.8932188134524,1000 "/>
<polygon fill="#7AC943" points="1000,792.8932188134524 1000,292.8932188134524 792.8932188134524,500 792.8932188134524,1000"/>
<polygon fill="#FF931E" points="1000,292.8932188134524 1000,0 792.8932188134524,0 500,292.8932188134524 646.4466094067262,439.3398282201788 792.8932188134524,292.8932188134524 792.8932188134524,500"/>
<polygon fill="#7AC943" points="500,1000 500,792.8932188134524 292.8932188134524,1000 "/>
<polygon fill="#FF931E" points="500,792.8932188134524 500,292.8932188134524 292.8932188134524,500 292.8932188134524,1000"/>
<polygon fill="#7B0012" points="500,292.8932188134524 500,0 292.8932188134524,0 0,292.8932188134524 146.4466094067262,439.3398282201788 292.8932188134524,292.8932188134524 292.8932188134524,500"/>
</svg>