<?xml version="1.0" encoding="windows-1252"?>
<svg version="1.1" id="Capa_1" xmlns="http://www.w3.org/2000/svg" xmlns:xlink="http://www.w3.org/1999/xlink" x="0px" y="0px" viewBox="0 0 28 28" xml:space="preserve">
	<rect height="4" width="4" y="0" x="0"></rect>
	<rect height="4" width="4" y="8" x="0"></rect>
	<rect height="4" width="4" y="16" x="0"></rect>
	<rect height="4" width="4" y="24" x="0"></rect>
	<rect height="4" width="4" y="0" x="8"></rect>
	<rect height="4" width="4" y="8" x="8"></rect>
	<rect height="4" width="4" y="16" x="8"></rect>
	<rect height="4" width="4" y="24" x="8"></rect>
	<rect height="4" width="4" y="0" x="16"></rect>
	<rect height="4" width="4" y="8" x="16"></rect>
	<rect height="4" width="4" y="16" x="16"></rect>
	<rect height="4" width="4" y="24" x="16"></rect>
	<rect height="4" width="4" y="0" x="24"></rect>
	<rect height="4" width="4" y="8" x="24"></rect>
	<rect height="4" width="4" y="16" x="24"></rect>
	<rect height="4" width="4" y="24" x="24"></rect>
</svg>